<svg id="xorder_logo_svg" xmlns="http://www.w3.org/2000/svg" viewBox="0 0 42.935 95.228">
  <defs>
    <style>
      .cls-1 {
        fill: #231f20;
      }
    </style>
  </defs>
  <g id="Layer_1" data-name="Layer 1" transform="translate(0 0)">
    <path id="Path_417" data-name="Path 417" class="cls-1" d="M14.229,33.485.528,9.23h13.94L21.8,23.09,27.85,9.23H41.272L27.93,34.282,41.113,57.661H27.372L20.2,44.159l-6.89,13.5H.17Z" transform="translate(0.507 27.531)"/>
    <path id="Path_418" data-name="Path 418" class="cls-1" d="M3.346,28.941a3.226,3.226,0,0,1-1.274-.279A3.306,3.306,0,0,1,1,27.945,3.5,3.5,0,0,1,.279,26.87,3.346,3.346,0,0,1,0,25.556a3.266,3.266,0,0,1,.438-1.673A3.385,3.385,0,0,1,3.346,22.21a3.266,3.266,0,0,1,1.314.279,3.345,3.345,0,0,1,1.036.717,3.385,3.385,0,0,1,.717,1.075,3.306,3.306,0,0,1,.279,1.274A3.425,3.425,0,0,1,5.018,28.5a3.266,3.266,0,0,1-1.673.438Zm0-1.434a1.872,1.872,0,0,0,.956-.239,1.912,1.912,0,0,0,.717-.717A1.872,1.872,0,0,0,5.3,25.6a1.952,1.952,0,0,0-.239-.956,1.992,1.992,0,0,0-.677-.717,1.792,1.792,0,0,0-.956-.279,1.872,1.872,0,0,0-1.673.956,1.832,1.832,0,0,0-.279.956,1.991,1.991,0,0,0,.239,1,1.872,1.872,0,0,0,.677.717,1.792,1.792,0,0,0,.956.239Z" transform="translate(0 66.248)"/>
    <path id="Path_419" data-name="Path 419" class="cls-1" d="M4.721,22.32V23.4a1.951,1.951,0,0,1,.757-.836,2.429,2.429,0,0,1,1.155-.319v1.513a1.991,1.991,0,0,0-1.235.478,1.354,1.354,0,0,0-.438.637,3.027,3.027,0,0,0,0,.876v1.633H5.8v1.354H2.53V27.378h.836v-3.7H2.53V22.32Z" transform="translate(7.547 66.337)"/>
    <path id="Path_420" data-name="Path 420" class="cls-1" d="M9.678,30.213v-.956a2.27,2.27,0,0,1-.876.8,2.708,2.708,0,0,1-1.195.279,3.027,3.027,0,0,1-1.115-.279,3.385,3.385,0,0,1-1.752-1.792A3.107,3.107,0,0,1,4.5,27.027,3.306,3.306,0,0,1,6.133,24.2a3.107,3.107,0,0,1,1.633-.438A2.669,2.669,0,0,1,9.877,24.8V23.084H8.841V21.73h2.31V28.9h.836v1.354ZM7.766,28.979a1.872,1.872,0,0,0,1-.279,1.877,1.877,0,0,0,.956-1.713,1.872,1.872,0,0,0,0-.757,2.031,2.031,0,0,0-.4-.6,1.912,1.912,0,0,0-.6-.4,1.832,1.832,0,0,0-.757,0,1.872,1.872,0,0,0-.956.279,1.912,1.912,0,0,0-.717.717,1.991,1.991,0,0,0,0,1.952,1.912,1.912,0,0,0,.717.717,1.872,1.872,0,0,0,.757.08Z" transform="translate(13.423 64.816)"/>
    <path id="Path_421" data-name="Path 421" class="cls-1" d="M12.08,26.9h1.513a3.5,3.5,0,0,1-.717,1.075,3.266,3.266,0,0,1-2.31,1,3.385,3.385,0,0,1-2.39-.956,3.226,3.226,0,0,1-.717-1.075,3.306,3.306,0,0,1-.239-1.314,3.465,3.465,0,0,1,.438-1.713,3.266,3.266,0,0,1,1.195-1.235,3.226,3.226,0,0,1,1.673-.438,3.186,3.186,0,0,1,.876,0,3.465,3.465,0,0,1,.8.358,3.983,3.983,0,0,1,.717.558,3.306,3.306,0,0,1,.876,2.39v.518H8.615a1.912,1.912,0,0,0,.677,1.115,1.872,1.872,0,0,0,1.235.438A1.713,1.713,0,0,0,12.08,26.9ZM8.615,25.031H12.6a1.991,1.991,0,0,0-.4-.8,2.071,2.071,0,0,0-.717-.518,2.111,2.111,0,0,0-.876,0,1.832,1.832,0,0,0-1.195.438,1.872,1.872,0,0,0-.8.876Z" transform="translate(21.535 66.255)"/>
    <path id="Path_422" data-name="Path 422" class="cls-1" d="M11.941,22.32V23.4a1.952,1.952,0,0,1,.757-.836,2.429,2.429,0,0,1,1.155-.319v1.513a1.991,1.991,0,0,0-1.235.478,1.314,1.314,0,0,0-.438.637,2.907,2.907,0,0,0,0,.876v1.633h.836v1.354H9.75V27.378h1v-3.7h-1V22.32Z" transform="translate(29.082 66.337)"/>
    <path id="Path_423" data-name="Path 423" class="cls-1" d="M10.315,18.833A6.094,6.094,0,0,0,9.2,12.58l-.438-.438a5.5,5.5,0,0,1,0-8.921,6.173,6.173,0,0,0,1.832,6.691,5.536,5.536,0,0,1-.279,8.921Z" transform="translate(19.317 9.605)"/>
    <path id="Path_424" data-name="Path 424" class="cls-1" d="M10.491,32.818A11.948,11.948,0,0,0,7.425,18.161,11.63,11.63,0,0,1,7.624,0a11.948,11.948,0,0,0,2.868,14.657C17.222,20.79,16.147,28.875,10.491,32.818Z" transform="translate(9.423 0)"/>
    <path id="Path_425" data-name="Path 425" class="cls-1" d="M5.7,15.738a4.7,4.7,0,0,0-.876-4.819L4.5,10.6a4.262,4.262,0,0,1,0-6.89A4.461,4.461,0,0,0,5.937,8.848a4.222,4.222,0,0,1-.239,6.89Z" transform="translate(8.202 11.066)"/>
  </g>
</svg>
