<svg id="manage_ordes" xmlns="http://www.w3.org/2000/svg" viewBox="0 0 179.147 151.188">
  <defs>
    <style>
      .cls-1 {
        fill: #ff6565;
      }
    </style>
  </defs>
  <g id="Layer_1" data-name="Layer 1" transform="translate(0)">
    <path id="Path_19" data-name="Path 19" class="cls-1" d="M167.573,125.689l-2.856-1.127a8.136,8.136,0,0,1-2.443-1.616l-1.672-1.484h-.132a16.387,16.387,0,0,0-3.758,2.236,2.349,2.349,0,0,0-3.119,1.015l-.47.9a3.477,3.477,0,0,1-.921.282H151a3.458,3.458,0,0,1-.77-.15l-.47-.9a2.349,2.349,0,0,0-3.194-1.109h0a16.629,16.629,0,0,0-3.758-2.292h-.132L140.985,123a8.136,8.136,0,0,1-2.443,1.616l-2.725,1.071c-6.558,2.687-13.98,5.637-10.823,18.377,1.654,5.919,20.669,7.122,25.762,7.122h1.879c5.017,0,24.108-1.2,25.762-7.122C181.553,131.4,174.131,128.376,167.573,125.689ZM151.658,136.7l1.466,5.863-1.409,1.109-1.484-1.184Zm-14.093-6.652,2.631-1.033a12.684,12.684,0,0,0,3.1-1.879,31.269,31.269,0,0,0,3.476,2.123l.921,1.879a5.975,5.975,0,0,0,.376.583l-2.518,10.222a3.758,3.758,0,0,0,1.353,3.908l.733.6c-7.911-.395-16.479-2.142-18.208-3.871-1.992-8.4,1.635-9.884,8.136-12.552Zm36.378,12.514c-1.729,1.71-10.241,3.457-18.114,3.852l.583-.451A3.871,3.871,0,0,0,157.84,142l-2.593-10.278a5.934,5.934,0,0,0,.376-.545l1-1.879A32.243,32.243,0,0,0,160,127.23,12.609,12.609,0,0,0,163.045,129l2.781,1.09c6.464,2.612,10.072,4.1,8.117,12.458ZM13.341,19.2a3.5,3.5,0,1,1,1.05,2.5,3.495,3.495,0,0,1-1.05-2.5Zm15.558,0a3.5,3.5,0,1,1,3.5,3.5,3.5,3.5,0,0,1-3.5-3.5h0Zm15.558,0a3.5,3.5,0,1,1,3.5,3.5,3.5,3.5,0,0,1-3.5-3.5Zm68.529,119.131H11.274a6.577,6.577,0,0,1-6.558-6.558V35.7H159.174V83.58c-4.923-2.687-13.153-2.593-17.25,1.672a3.381,3.381,0,0,1-.846.639c-1.259.658-5.224,3.457-4.51,12.7a8.212,8.212,0,0,0-.507,3.946,20.126,20.126,0,0,0,.9,4.51,5.9,5.9,0,0,0,1.785,2.386c.132.658.263,1.278.413,1.879.958,3.514,5.506,10.485,11.65,10.692h1.39c6.314,0,10.955-7.122,11.913-10.692a16.911,16.911,0,0,0,.413-1.879,5.938,5.938,0,0,0,1.879-2.405,20.313,20.313,0,0,0,.883-4.491h0a8.3,8.3,0,0,0-.507-3.927c.583-6.614-1.221-10.015-2.913-11.725V11.274A11.274,11.274,0,0,0,152.6,0H11.274A11.274,11.274,0,0,0,0,11.274V131.759a11.274,11.274,0,0,0,11.274,11.274H112.987a2.349,2.349,0,1,0,0-4.7Zm49.626-36.209a16.91,16.91,0,0,1-.564,3.1,1.165,1.165,0,0,1-.583.62,2.349,2.349,0,0,0-1.315,1.766,22.673,22.673,0,0,1-.432,2.368c-.6,2.2-4.021,7.2-7.516,7.234h-1.184c-3.533-.113-6.727-5.13-7.291-7.234a23.214,23.214,0,0,1-.489-2.368,2.349,2.349,0,0,0-1.315-1.747,1.165,1.165,0,0,1-.564-.6,16.91,16.91,0,0,1-.583-3.176h0a3.533,3.533,0,0,1,.188-1.71,2.349,2.349,0,0,0,.395-1.541c-.583-5.825,1-8.268,1.879-8.756a8,8,0,0,0,2.142-1.56c2.856-2.913,10.147-2.518,12.74,0a6.239,6.239,0,0,0,1.146.846v.319a2.349,2.349,0,0,0,2.33,2.386h0a15.634,15.634,0,0,1,.451,6.821,2.349,2.349,0,0,0,.376,1.56,3.758,3.758,0,0,1,.188,1.672ZM11.274,4.792H152.6a6.577,6.577,0,0,1,6.577,6.483V31.1H4.716V11.274a6.577,6.577,0,0,1,6.558-6.483ZM37.581,82.565H57.2a2.349,2.349,0,0,0,2.349-2.349V60.674a2.349,2.349,0,0,0-2.274-2.424H37.581A2.349,2.349,0,0,0,35.232,60.6V80.141a2.349,2.349,0,0,0,2.349,2.424ZM39.93,63.023H54.774V77.868H39.93Zm-4.7,30.422A2.349,2.349,0,0,1,37.581,91.1H49.043a2.349,2.349,0,1,1,0,4.7H40v14.844H54.849v-7.291a2.349,2.349,0,1,1,4.7,0v9.677a2.349,2.349,0,0,1-2.349,2.349H37.581a2.349,2.349,0,0,1-2.349-2.349Zm26.776.225-13,13a2.349,2.349,0,0,1-3.326,0h0l-4.9-4.9A2.352,2.352,0,1,1,44.1,98.443l3.251,3.251L58.626,90.42a2.349,2.349,0,0,1,3.382,3.251Zm56.935,3.044a2.349,2.349,0,0,1-2.349,2.349H72.043a2.349,2.349,0,0,1,0-4.7h44.646a2.349,2.349,0,0,1,2.33,2.349Zm-46.976,12.12a2.349,2.349,0,0,1,0-4.7H99.4a2.349,2.349,0,0,1,0,4.7ZM69.619,65.616a2.349,2.349,0,0,1,2.292-2.405H87.939a2.349,2.349,0,0,1,0,4.7H71.967a2.349,2.349,0,0,1-2.33-2.349Zm0,9.771a2.349,2.349,0,0,1,2.292-2.405H99.477a2.349,2.349,0,0,1,0,4.7H72.043a2.349,2.349,0,0,1-2.33-2.349Z" transform="translate(0)"/>
  </g>
</svg>
