<svg id="track_sales" xmlns="http://www.w3.org/2000/svg" viewBox="0 0 167.34 151.211">
  <defs>
    <style>
      .cls-1 {
        fill: #ff6565;
      }
    </style>
  </defs>
  <g id="Layer_1" data-name="Layer 1" transform="translate(0 0)">
    <path id="Path_20" data-name="Path 20" class="cls-1" d="M146.3,151.211a2.351,2.351,0,0,1-2.371-2.371v-5.455H12.862c-4.626,0-4.973-2.776-4.973-3.624V23.38H2.3A2.352,2.352,0,0,1,.218,20.027L8.564,1.388A2.371,2.371,0,0,1,10.723,0h0a2.352,2.352,0,0,1,2.159,1.407c8.327,19,8.327,19,8.327,19.68a2.352,2.352,0,0,1-.694,1.677,2.043,2.043,0,0,1-1.677.675H12.612v115.34H143.989v-6.361a2.371,2.371,0,0,1,3.335-2.14l18.619,8.346a2.371,2.371,0,0,1,0,4.318C147,151.211,147,151.211,146.3,151.211Zm2.448-15.266v9.31l10.485-4.549ZM6,18.658h9.31L10.7,8.173ZM118.912,129.584a2.352,2.352,0,0,1-2.352-2.371V99.574a2.361,2.361,0,0,1,4.722,0v27.64a2.351,2.351,0,0,1-2.371,2.371Zm-26.985,0a2.352,2.352,0,0,1-2.352-2.371V96.2a2.361,2.361,0,1,1,4.722,0v31.013a2.351,2.351,0,0,1-2.371,2.371Zm-26.985,0a2.352,2.352,0,0,1-2.352-2.371V80.01a2.361,2.361,0,1,1,4.722,0v47.2a2.351,2.351,0,0,1-2.371,2.371Zm-25.635,0a2.352,2.352,0,0,1-2.352-2.371V44.332a2.371,2.371,0,0,1,4.722,0v82.882a2.351,2.351,0,0,1-2.371,2.371Zm111.5-19.718a6.515,6.515,0,0,1-4.684-1.927L126.68,88.548a2.333,2.333,0,0,1-.347-.443,11.448,11.448,0,0,1-.983-1.927,7.093,7.093,0,0,1-.289-1.735,2.449,2.449,0,0,1,0-.4l.366-3.315-7.71-7.5-2.062,1.561a34.232,34.232,0,0,1-19.525,5.648,36.622,36.622,0,1,1,36.622-36.622,35.234,35.234,0,0,1-5.667,19.583c-.328.5-.944,1.349-1.484,2.12l7.556,7.382,3.335-.385h.27a6.881,6.881,0,0,1,2.082.27,11.025,11.025,0,0,1,1.927,1.1,2.449,2.449,0,0,1,.385.308L160.43,93.463a6.65,6.65,0,0,1,1.6,6.091,10.987,10.987,0,0,1-3.045,5.59l-1.6,1.6a9.637,9.637,0,0,1-6.573,3.123Zm-20.6-24.46,19.275,19.275c.983.983,3.1.463,4.742-1.156l1.6-1.6a6.4,6.4,0,0,0,1.754-3.142,2.236,2.236,0,0,0-.308-1.927L137.994,77.581c-.212-.135-.54-.328-.771-.463h-.366l-4.3.5a2.332,2.332,0,0,1-1.927-.655l-8.076-7.9-.675.694-.443.424,8.115,7.941a2.351,2.351,0,0,1,.694,1.927l-.463,4.24a2.85,2.85,0,0,0,0,.366ZM96.052,11.893a31.919,31.919,0,1,0,0,63.819,29.606,29.606,0,0,0,16.885-4.838c.829-.559,3.045-2.159,3.527-2.506a12.113,12.113,0,0,0,1.927-1.927,21.663,21.663,0,0,1,1.927-1.927h0l.116-.173s1.927-2.621,2.583-3.624a30.492,30.492,0,0,0,4.857-16.943A31.977,31.977,0,0,0,96.052,11.893Zm0,56.3A2.352,2.352,0,0,1,93.7,65.843V64.725a18.407,18.407,0,0,1-8.558-3.431,2.371,2.371,0,1,1,3.122-3.469,13.088,13.088,0,0,0,5.358,2.1V45.084c-5.108-2.853-10.91-6.534-8.809-14.533a9.965,9.965,0,0,1,6.631-6.727,13.146,13.146,0,0,1,2.159-.559V21.993a2.361,2.361,0,1,1,4.722,0v1.234a21.2,21.2,0,0,1,9.483,4.067A2.386,2.386,0,1,1,105,31.148a16.827,16.827,0,0,0-6.688-3.142v14.3c6.206,3.392,10.967,6.284,10.139,13.492a9.5,9.5,0,0,1-6.284,8.365,13.955,13.955,0,0,1-3.855.81v.887a2.371,2.371,0,0,1-2.332,2.332Zm2.255-20.47V60.234a8.847,8.847,0,0,0,2.2-.482,4.877,4.877,0,0,0,3.277-4.472C104.186,51.83,102.683,50.249,98.307,47.724ZM93.624,28.083l-.6.193A5.339,5.339,0,0,0,89.4,31.746c-.944,3.585.424,5.474,4.24,7.864Z" transform="translate(0.006 0)"/>
  </g>
</svg>
